<svg width="15" height="15" viewBox="0 0 15 15" fill="none" xmlns="http://www.w3.org/2000/svg">
<g filter="url(#filter0_d_0_44918)">
<path d="M10.0101 10.4522L14.5664 5.89599C14.7867 5.67801 14.7867 5.32178 14.5664 5.10146L10.0101 0.547565C9.79217 0.327244 9.43592 0.327244 9.21562 0.547565L8.6953 1.06788C8.47031 1.29054 8.47498 1.65382 8.70469 1.87178L11.5289 4.56239H4.79297C4.48125 4.56239 4.23047 4.81318 4.23047 5.12489V5.87489C4.23047 6.1866 4.48125 6.43739 4.79297 6.43739H11.5289L8.70469 9.128C8.47734 9.34597 8.47265 9.70925 8.6953 9.9319L9.21562 10.4522C9.43358 10.6725 9.78983 10.6725 10.0101 10.4522Z" fill="#1565D8"/>
</g>
<defs>
<filter id="filter0_d_0_44918" x="0.230469" y="0.382324" width="18.502" height="18.2354" filterUnits="userSpaceOnUse" color-interpolation-filters="sRGB">
<feFlood flood-opacity="0" result="BackgroundImageFix"/>
<feColorMatrix in="SourceAlpha" type="matrix" values="0 0 0 0 0 0 0 0 0 0 0 0 0 0 0 0 0 0 127 0" result="hardAlpha"/>
<feOffset dy="4"/>
<feGaussianBlur stdDeviation="2"/>
<feComposite in2="hardAlpha" operator="out"/>
<feColorMatrix type="matrix" values="0 0 0 0 0 0 0 0 0 0 0 0 0 0 0 0 0 0 0.25 0"/>
<feBlend mode="normal" in2="BackgroundImageFix" result="effect1_dropShadow_0_44918"/>
<feBlend mode="normal" in="SourceGraphic" in2="effect1_dropShadow_0_44918" result="shape"/>
</filter>
</defs>
</svg>
