<svg width="48" height="48" viewBox="0 0 48 48" fill="none" xmlns="http://www.w3.org/2000/svg">
<g id="iconspace_Call center_1">
<circle id="Shape" cx="24" cy="24" r="24" fill="#E6F0FC"/>
<path id="Shape_2" fill-rule="evenodd" clip-rule="evenodd" d="M15 20.25V29.25H33V20.25L15 20.25Z" fill="#52ABE2"/>
<path id="Shape_3" fill-rule="evenodd" clip-rule="evenodd" d="M14.25 29.25V20.25C14.25 19.8358 14.5858 19.5 15 19.5H33C33.4142 19.5 33.75 19.8358 33.75 20.25V29.25C33.75 29.6642 33.4142 30 33 30H15C14.5858 30 14.25 29.6642 14.25 29.25ZM32.25 21H15.75V28.5H32.25V21Z" fill="#154E84"/>
<path id="Shape_4" fill-rule="evenodd" clip-rule="evenodd" d="M20.8285 25.6077C17.917 24.3722 15.875 21.4871 15.875 18.125V14.875C15.875 10.3877 19.5127 6.75 24 6.75C28.4873 6.75 32.125 10.3877 32.125 14.875V18.125C32.125 21.4871 30.083 24.3722 27.1715 25.6077L28.5 29.25L34.1269 30.3846C35.2698 30.6075 36.1804 31.4718 36.4629 32.6015L37.5 36.75H10.5L11.5358 32.6068C11.8189 31.4744 12.7332 30.609 13.8795 30.3885L19.5 29.25L20.8285 25.6077Z" fill="white"/>
<path id="Shape_5" fill-rule="evenodd" clip-rule="evenodd" d="M15.1254 14.875V18.125C15.1254 21.4764 17.0004 24.4825 19.89 25.9929L18.9397 28.5983L13.731 29.6534C12.3053 29.9276 11.1624 31.0094 10.8086 32.4249L9.77276 36.5681C9.65442 37.0415 10.0124 37.5 10.5004 37.5H37.5004C37.9883 37.5 38.3463 37.0415 38.228 36.5681L37.1908 32.4196C36.8378 31.0074 35.6995 29.9272 34.2708 29.6485L29.0609 28.5979L28.1107 25.9929C31.0003 24.4825 32.8754 21.4764 32.8754 18.125V14.875C32.8754 9.97347 28.9019 6 24.0004 6C19.0988 6 15.1254 9.97347 15.1254 14.875ZM33.979 31.1198C34.8408 31.2879 35.5238 31.9361 35.7356 32.7834L36.5398 36H11.461L12.2638 32.7887C12.4761 31.9394 13.1618 31.2903 14.0216 31.1249L19.6493 29.9851C19.9051 29.9333 20.1155 29.7522 20.205 29.507L21.5334 25.8647C21.6702 25.4897 21.4893 25.0733 21.1218 24.9173C18.4183 23.77 16.6254 21.1128 16.6254 18.125V14.875C16.6254 10.8019 19.9273 7.5 24.0004 7.5C28.0735 7.5 31.3754 10.8019 31.3754 14.875V18.125C31.3754 21.1128 29.5825 23.77 26.8789 24.9173C26.5115 25.0733 26.3305 25.4897 26.4673 25.8647L27.7958 29.507C27.8853 29.7524 28.096 29.9336 28.3521 29.9852L33.979 31.1198Z" fill="#154E84"/>
<circle id="Shape_6" cx="25.5" cy="26.25" r="1.5" fill="#FFC200"/>
<path id="Shape_7" fill-rule="evenodd" clip-rule="evenodd" d="M27.75 26.25C27.75 27.4926 26.7426 28.5 25.5 28.5C24.2574 28.5 23.25 27.4926 23.25 26.25C23.25 25.0074 24.2574 24 25.5 24C26.7426 24 27.75 25.0074 27.75 26.25ZM24.75 26.25C24.75 26.6642 25.0858 27 25.5 27C25.9142 27 26.25 26.6642 26.25 26.25C26.25 25.8358 25.9142 25.5 25.5 25.5C25.0858 25.5 24.75 25.8358 24.75 26.25Z" fill="#154E84"/>
<path id="Shape_8" d="M18.75 29.25C18.75 32.1495 21.1005 34.5 24 34.5C26.8995 34.5 29.25 32.1495 29.25 29.25C29.25 28.8358 28.9142 28.5 28.5 28.5C28.0858 28.5 27.75 28.8358 27.75 29.25C27.75 31.3211 26.0711 33 24 33C21.9289 33 20.25 31.3211 20.25 29.25C20.25 28.8358 19.9142 28.5 19.5 28.5C19.0858 28.5 18.75 28.8358 18.75 29.25Z" fill="#154E84"/>
<path id="Shape_9" fill-rule="evenodd" clip-rule="evenodd" d="M33 14.25H34.5C35.3284 14.25 36 14.9216 36 15.75V18.75C36 19.5784 35.3284 20.25 34.5 20.25H33V14.25Z" fill="#FFC200"/>
<path id="Shape_10" fill-rule="evenodd" clip-rule="evenodd" d="M15 14.25V20.25H13.5C12.6716 20.25 12 19.5784 12 18.75V15.75C12 14.9216 12.6716 14.25 13.5 14.25H15Z" fill="#FFC200"/>
<path id="Shape_11" fill-rule="evenodd" clip-rule="evenodd" d="M33 13.5C32.5858 13.5 32.25 13.8358 32.25 14.25V20.25C32.25 20.6642 32.5858 21 33 21H34.5C35.7426 21 36.75 19.9926 36.75 18.75V15.75C36.75 14.5074 35.7426 13.5 34.5 13.5H33ZM33.75 19.5V15H34.5C34.9142 15 35.25 15.3358 35.25 15.75V18.75C35.25 19.1642 34.9142 19.5 34.5 19.5H33.75Z" fill="#154E84"/>
<path id="Shape_12" fill-rule="evenodd" clip-rule="evenodd" d="M15.75 20.25V14.25C15.75 13.8358 15.4142 13.5 15 13.5H13.5C12.2574 13.5 11.25 14.5074 11.25 15.75V18.75C11.25 19.9926 12.2574 21 13.5 21H15C15.4142 21 15.75 20.6642 15.75 20.25ZM13.5 15H14.25V19.5H13.5C13.0858 19.5 12.75 19.1642 12.75 18.75V15.75C12.75 15.3358 13.0858 15 13.5 15Z" fill="#154E84"/>
<path id="Shape_13" fill-rule="evenodd" clip-rule="evenodd" d="M32.125 14.875C30.2319 14.7577 27.7742 13.073 26.6619 10.3171C23.3224 13.4212 19.7977 14.9053 15.875 14.875L15.8957 14.4243C16.0926 10.1302 19.6313 6.75 23.93 6.75C28.2489 6.75 31.8241 10.1068 32.0961 14.4171L32.125 14.875Z" fill="#52ABE2"/>
<path id="Shape_14" fill-rule="evenodd" clip-rule="evenodd" d="M15.1258 14.8406C15.1063 15.2656 15.4438 15.6217 15.8692 15.625C19.6977 15.6545 23.1635 14.3104 26.4154 11.5406C27.7031 13.8723 29.9823 15.4936 32.0786 15.6236C32.5291 15.6515 32.9019 15.2782 32.8735 14.8278L32.8446 14.3699C32.5477 9.66444 28.6448 6 23.93 6C19.2305 6 15.3617 9.69541 15.1465 14.39L15.1258 14.8406ZM16.6692 14.1093C17.0173 10.3832 20.1495 7.5 23.93 7.5C27.6817 7.5 30.8155 10.2885 31.2982 13.9563C29.756 13.4636 28.1409 11.9777 27.3574 10.0364C27.1606 9.54884 26.5363 9.40981 26.1513 9.76774C23.178 12.5315 20.0824 13.9455 16.6692 14.1093Z" fill="#154E84"/>
</g>
</svg>
