<svg width="47" height="46" viewBox="0 0 47 46" fill="none" xmlns="http://www.w3.org/2000/svg">
<rect x="0.5" width="46" height="46" rx="23" fill="#EBEBEB"/>
<path d="M8.23888 34.5604C7.71128 34.7117 7.48548 34.6106 7.25372 34.1196C5.15968 29.6859 7.61887 24.2428 12.2839 22.6517C12.506 22.5756 12.5656 22.4804 12.5648 22.2582C12.5574 19.6503 12.503 17.1917 12.4918 14.5839C12.4903 14.166 12.6468 13.912 13.0179 13.7126C15.4167 12.422 17.7791 11.1166 20.1712 9.81419C21.9574 8.8418 23.6573 8.03922 25.4435 7.06609C25.6 6.99447 25.7558 6.97971 25.8914 7.02844C26.4868 7.22483 27.0047 7.57407 27.5487 7.86867C29.2255 8.77609 30.8746 9.61632 32.5484 10.5289C34.158 11.4061 35.7222 12.1939 37.3289 13.0769C37.6799 13.2696 38.0316 13.4608 38.3856 13.6476C38.6106 13.7658 38.7984 13.926 38.8633 14.1985L38.9251 18.7525C38.9251 18.8633 38.9028 18.9748 38.8491 19.0722C38.7336 19.2797 38.5719 19.3624 38.3014 19.3727C37.7894 19.3816 37.6195 19.0508 37.6136 18.5465C37.6039 17.6768 37.6121 16.8077 37.6098 15.938C37.6091 15.5238 37.6001 15.5216 37.2439 15.712C36.3228 16.2045 35.4129 16.7169 34.4896 17.2042C34.2489 17.3312 34.1647 17.4922 34.167 17.7528C34.1759 18.7902 34.158 19.8275 34.1759 20.8642C34.1871 21.5206 33.9136 21.9355 33.1699 22.1984C32.5476 22.4184 31.9611 22.727 31.444 23.1346C30.6853 23.7334 30.0087 23.4476 29.9975 22.6185C29.9863 21.7598 29.9968 20.9004 29.9938 20.0417C29.9923 19.688 29.9573 19.6718 29.6391 19.8467C28.7143 20.3547 27.7939 20.8701 26.8579 21.3552C26.5226 21.5294 26.4212 21.7339 26.4227 22.0913C26.4347 24.9826 26.4294 27.874 26.4294 30.7653C26.4294 31.6454 26.4287 32.5255 26.4302 33.4049C26.4309 33.7157 26.4369 33.7209 26.7186 33.568C28.7679 32.4568 30.8135 31.339 32.8613 30.2263C34.2981 29.4459 35.7282 28.6537 37.1754 27.8924C37.4839 27.73 37.6255 27.5447 37.6188 27.1866C37.5986 26.0658 37.6054 24.945 37.6143 23.8242C37.618 23.3162 37.7417 22.9751 38.2962 22.9913C38.6472 23.0024 38.9698 23.1338 38.9698 23.5089V28.001C38.9698 28.2335 38.858 28.4514 38.668 28.5887C38.5771 28.6544 38.4787 28.712 38.3766 28.7674C34.3182 30.9713 30.2598 33.1753 26.2081 35.3917C25.8318 35.5977 25.5203 35.6059 25.1484 35.3895C24.3943 34.951 23.6155 34.553 22.8532 34.1277C22.6833 34.0332 22.6199 34.0539 22.5305 34.2296C21.1876 36.8603 19.0414 38.4263 16.1061 38.89C14.4241 39.1558 12.804 38.8723 11.2652 38.1517C10.8874 37.9745 10.7674 37.6385 10.9328 37.2317C11.0297 36.9962 11.1869 36.9194 11.4023 36.8921C11.6303 36.8633 11.8397 36.9349 12.0462 37.0242C14.0552 37.894 16.0748 37.8777 18.025 36.9172C20.2204 35.8355 21.5565 34.0554 21.9261 31.6343C22.2242 29.677 21.7555 27.8821 20.5274 26.3161C19.347 24.8113 17.7895 23.9128 15.8736 23.6558C12.8063 23.2446 9.96628 24.7693 8.59435 27.4494C7.60844 29.375 7.56 31.3708 8.40954 33.3724C8.50865 33.6057 8.61522 33.8361 8.58168 34.0967C8.55411 34.3086 8.49673 34.5087 8.23888 34.5604Z" fill="black"/>
<path d="M8.2389 34.5604C8.65622 34.3485 8.60778 34.0325 8.41626 33.608C6.45264 29.2569 9.03851 24.4149 13.7676 23.588C17.5339 22.9294 21.3076 25.5505 21.9686 29.2842C22.6811 33.3089 20.0587 36.9918 16.0055 37.6371C14.5918 37.8623 13.2281 37.6526 11.9225 37.07C11.4552 36.8611 11.1296 36.8692 10.9343 37.2302C10.5423 37.0516 10.2055 36.7954 9.89178 36.5067C9.8411 36.4232 9.88954 36.3465 9.90817 36.2667C10.02 35.7897 9.6943 35.4664 9.21364 35.5778C9.13316 35.5963 9.05565 35.6436 8.97145 35.5941C8.67783 35.2825 8.4185 34.9488 8.2389 34.5604Z" fill="#90DDF4"/>
<path d="M8.78363 35.941C8.85219 35.687 9.08246 35.5076 9.34552 35.4773C9.65627 35.4419 9.89548 35.5851 10.0013 35.8871C10.0423 36.003 10.0393 36.1101 10.0132 36.2135C9.96181 36.4195 9.80308 36.5848 9.60187 36.6572C9.30155 36.7643 9.05191 36.6867 8.87529 36.4246C8.76053 36.2541 8.74264 36.0939 8.78363 35.941Z" fill="#010101"/>
<path d="M38.3364 19.3706C38.3364 19.7834 38.3364 20.1304 38.3364 20.5424C37.9235 20.6258 37.7104 20.8333 37.7015 21.1619C37.6925 21.4941 37.9086 21.7178 38.3364 21.8182C38.3364 22.2317 38.3364 22.5795 38.3364 22.9929C37.8438 22.9974 37.7015 23.3503 37.7007 23.8398C37.7 25.0448 37.6963 26.249 37.7052 27.454C37.7067 27.6363 37.6456 27.7301 37.4883 27.8158C33.8249 29.8041 30.1637 31.7969 26.5025 33.7882C26.4585 33.8126 26.4093 33.8273 26.3609 33.8473C26.2931 33.7372 26.3236 33.6309 26.3236 33.5305C26.3214 29.6439 26.3244 25.758 26.3162 21.8714C26.3154 21.6292 26.387 21.5037 26.6046 21.3885C27.6657 20.8289 28.7157 20.247 29.771 19.6763C29.8589 19.6291 29.9364 19.5442 30.078 19.567C30.078 20.5276 30.078 21.4875 30.078 22.448C30.078 22.5632 30.0728 22.6791 30.0817 22.7936C30.1182 23.2314 30.5586 23.5186 30.9521 23.3163C31.897 22.829 32.8263 22.3122 33.7563 21.7968C34.0179 21.6521 34.0596 21.39 34.0589 21.1146C34.0559 19.9517 34.0641 18.7888 34.0522 17.6267C34.0499 17.4052 34.126 17.2966 34.319 17.194C35.4323 16.6011 36.5375 15.9935 37.6426 15.391C37.7402 15.4656 37.6978 15.5556 37.6985 15.6302C37.7022 16.5937 37.7 17.5573 37.7015 18.5215C37.7015 19.0111 37.8058 19.347 38.3364 19.3706Z" fill="#FECA7B"/>
<path d="M13.655 15.3585C14.2929 15.7041 14.8824 16.0223 15.4711 16.3427C18.5697 18.0276 21.666 19.7147 24.7676 21.3937C24.9785 21.5082 25.0597 21.63 25.059 21.8773C25.0493 25.8577 25.0522 29.8388 25.0522 33.8399C24.8481 33.8259 24.7035 33.6974 24.5448 33.614C24.1342 33.3998 23.7355 33.1621 23.3211 32.9554C23.1266 32.8579 23.0812 32.7568 23.1296 32.5412C23.7124 29.9341 23.2324 27.5315 21.5468 25.4428C19.6152 23.0491 17.0584 22.0213 13.9732 22.2996C13.8145 22.3137 13.6476 22.3934 13.6491 22.0937C13.6602 19.8727 13.655 17.6518 13.655 15.3585Z" fill="#FEC05A"/>
<path d="M14.3547 14.2922C15.4897 13.6742 16.6105 13.0732 17.7194 12.4515C17.9578 12.3179 18.1322 12.312 18.3781 12.4464C21.9603 14.4066 25.5493 16.3544 29.1367 18.3058C29.2105 18.3457 29.2798 18.3929 29.3759 18.4513C28.39 18.9895 27.3981 19.4805 26.4622 20.0594C25.9018 20.4057 25.4815 20.3813 24.9062 20.0608C21.4946 18.1633 18.0554 16.313 14.6252 14.4465C14.5418 14.4022 14.4613 14.3535 14.3547 14.2922Z" fill="#FEE5BF"/>
<path d="M37.0033 14.3041C35.8519 14.9309 34.714 15.546 33.5827 16.1713C33.4233 16.2592 33.3264 16.1758 33.2086 16.1115C31.0185 14.9206 28.8283 13.7311 26.6381 12.5402C25.1418 11.7265 23.6454 10.9114 22.1132 10.0771C22.3934 9.92277 22.6468 9.78175 22.9009 9.64294C23.7504 9.17927 24.6007 8.71854 25.4488 8.25117C25.5956 8.16996 25.7141 8.13821 25.8825 8.2305C29.5281 10.2225 33.1781 12.2072 36.8274 14.1933C36.881 14.2229 36.9317 14.259 37.0033 14.3041Z" fill="#FEE5BF"/>
<path d="M19.373 11.5626C19.8388 11.3094 20.2569 11.0923 20.6638 10.8553C20.8128 10.7681 20.9007 10.8545 21.0065 10.9121C24.2601 12.6812 27.5137 14.4502 30.7673 16.22C31.2018 16.4563 31.6355 16.6933 32.1206 16.9569C31.6504 17.2139 31.2144 17.456 30.7733 17.6901C30.6332 17.7647 30.5363 17.6332 30.4349 17.5779C27.3833 15.9218 24.3339 14.2605 21.2845 12.6007C20.666 12.2648 20.0475 11.9288 19.373 11.5626Z" fill="#FEFEFE"/>
<path d="M31.3471 21.6816C31.3471 20.7461 31.3493 19.8667 31.3449 18.9874C31.3441 18.87 31.3739 18.7961 31.4835 18.7385C31.9015 18.5192 32.3159 18.2911 32.7295 18.0674C32.8286 18.1685 32.7853 18.2785 32.7861 18.3767C32.7906 19.1417 32.7831 19.9058 32.7921 20.6708C32.7943 20.8406 32.7421 20.9329 32.5864 21.0111C32.184 21.2149 31.7927 21.4386 31.3471 21.6816Z" fill="#FDFDFD"/>
<path d="M12.8725 28.475C14.1074 28.475 15.3422 28.4677 16.5762 28.4773C18.0421 28.4883 19.2418 29.5515 19.4356 30.9957C19.6592 32.66 18.3849 34.1817 16.6865 34.2481C15.9152 34.2784 15.1425 34.2629 14.3704 34.2562C13.9591 34.2526 13.6953 33.9897 13.6997 33.6183C13.7042 33.2477 13.9687 33.0055 14.3876 33.0025C15.1171 32.9981 15.8474 33.0114 16.577 32.9959C17.4407 32.9774 18.1091 32.341 18.1956 31.483C18.2746 30.6974 17.6993 29.9443 16.8795 29.7642C16.7976 29.7465 16.7126 29.7354 16.6284 29.7354C15.3809 29.7339 14.1327 29.7339 12.8025 29.7339C12.956 29.8867 13.07 29.996 13.1796 30.109C13.4754 30.4154 13.4948 30.8001 13.2288 31.0563C12.962 31.3132 12.5991 31.3014 12.2987 31.0098C11.8151 30.5402 11.3367 30.0662 10.8627 29.587C10.5564 29.2776 10.5535 28.9269 10.8575 28.619C11.3382 28.1325 11.824 27.6503 12.3159 27.1741C12.5976 26.9009 12.965 26.8935 13.2235 27.1387C13.4859 27.3867 13.4821 27.7729 13.2064 28.0616C13.0909 28.1827 12.9597 28.2897 12.8353 28.4027C12.8472 28.4271 12.8599 28.4514 12.8725 28.475Z" fill="black"/>
<path d="M38.3289 21.9546C38.7442 21.9546 39.0808 21.621 39.0808 21.2096C39.0808 20.7981 38.7442 20.4646 38.3289 20.4646C37.9136 20.4646 37.577 20.7981 37.577 21.2096C37.577 21.621 37.9136 21.9546 38.3289 21.9546Z" fill="#010101"/>
</svg>
