<svg width="46" height="46" viewBox="0 0 46 46" fill="none" xmlns="http://www.w3.org/2000/svg">
<rect width="46" height="46" rx="23" fill="#EBEBEB"/>
<path d="M29.6478 24.7858C29.4597 24.7036 29.1306 24.5606 28.9047 24.4764C27.97 24.127 27.2336 23.8363 26.398 23.2838C25.9988 23.0205 25.5551 23.0553 25.1289 23.2811C25.0655 23.3152 25.0136 23.4228 24.907 23.3386C24.6717 23.1528 24.6757 22.2629 24.9219 22.0905C25.3764 21.7731 25.8579 21.4557 26.1404 20.988C26.5154 20.3673 26.9915 20.2096 27.6996 20.2277C28.8568 20.2557 29.7173 19.3617 29.7328 18.2326C29.751 16.9744 29.7443 15.7163 29.7341 14.4575C29.7287 13.8969 29.492 13.4326 29.0112 13.1245C28.8473 13.0196 28.8076 12.9107 28.8089 12.7363C28.8156 11.9733 28.8183 11.2096 28.8109 10.4466C28.7981 9.16641 27.9889 8.29581 26.7083 8.19358C26.5134 8.17822 26.4891 8.09804 26.4749 7.93501C26.4163 7.28156 26.1195 6.75105 25.5895 6.35149C25.311 6.14169 24.9812 6.04882 24.6609 5.93323H18.338C18.3103 5.99603 18.2496 5.982 18.1991 5.99002C15.9689 6.2947 14.2021 8.18557 14.0942 10.4132C14.0571 11.1862 14.076 11.9626 14.0787 12.737C14.08 12.9141 14.0328 13.0203 13.8703 13.1245C13.4016 13.4245 13.1602 13.8749 13.1474 14.4261C13.1319 15.0816 13.1217 15.739 13.1474 16.3945C13.1838 17.3165 13.8528 17.9433 14.7874 17.9686C14.9398 17.9733 15.0923 17.976 15.2433 17.968C15.389 17.9606 15.4476 18.0087 15.4712 18.1624C15.7255 19.8094 16.5388 21.1143 17.9273 22.0617C17.9974 22.1098 18.106 22.1453 18.1074 22.2355C18.1141 22.5769 18.1667 22.9237 18.0197 23.2524C17.9819 23.3366 17.9516 23.4067 17.8322 23.3312C17.2179 22.947 16.6676 23.1315 16.1078 23.4889C15.7113 23.7428 15.3296 24.0201 14.8603 24.1651C11.4385 25.2294 9.23199 27.4664 8.28922 30.9067C7.90483 32.3112 8.00532 33.7484 8.03095 35.1749C8.05657 36.6014 9.21379 37.7092 10.6596 37.7125C16.0573 37.7225 21.4542 37.7165 26.8512 37.7192C27.1506 37.7192 27.3529 37.609 27.4217 37.3076V37.307C27.5357 37.0571 27.4056 36.8974 27.2127 36.7651C27.0623 36.6629 26.8869 36.6548 26.7123 36.6542C26.019 36.6522 25.3238 36.6435 24.6305 36.6588C24.3473 36.6649 24.2293 36.5666 24.18 36.2887C23.9939 35.2417 23.8071 34.1947 23.6203 33.1477C23.4187 32.0159 23.2231 30.882 23.0073 29.7535C22.9095 29.2384 23.2298 28.9049 23.476 28.5335C23.5266 28.4573 23.6277 28.46 23.7167 28.466C24.2077 28.5 24.6008 28.2923 24.9414 27.9675C25.2685 27.6542 25.5874 27.3314 25.9078 27.0107C25.9206 26.9974 25.9334 26.984 25.9462 26.9713C25.9563 26.9606 25.9664 26.9499 25.9766 26.9399C26.4594 26.4441 26.9672 25.9731 27.4406 25.4706C27.6598 25.2388 27.8661 25.198 28.1608 25.3076C28.5479 25.4513 28.9202 25.6283 29.3052 25.7727C29.6606 25.9056 29.8785 25.792 29.9749 25.4593V25.4586C30.0767 25.1332 29.9513 24.9181 29.6478 24.7858ZM27.3185 19.2862C27.1769 19.2715 27.1581 19.2321 27.1978 19.1112C27.3004 18.7951 27.3846 18.4744 27.419 18.143C27.4352 17.988 27.5276 17.964 27.6645 17.966C28.0206 17.9706 28.3787 17.996 28.7394 17.8504C28.8116 18.862 28.2721 19.3818 27.3185 19.2862Z" fill="black"/>
<path d="M30.9178 26.1428C32.4991 25.6003 34.0778 25.5702 35.6599 26.1461C38.4707 27.1704 40.2328 29.9713 39.9752 33.0174C39.7324 35.8831 37.4342 38.368 34.5459 38.8818C32.3494 39.272 30.4315 38.6853 28.7571 37.2508C28.4314 37.0798 28.2 36.8058 27.9782 36.5285C26.1473 34.2448 26.0057 30.9902 27.7199 28.5468C28.401 27.586 29.2703 26.8397 30.3344 26.3205C30.5185 26.2323 30.7013 26.1294 30.9178 26.1428Z" fill="black"/>
<path d="M27.7974 28.5508C27.2195 29.4481 26.7939 30.4016 26.6665 31.4713C26.4042 33.6775 27.0664 35.5637 28.6511 37.1339C28.6889 37.1713 28.7226 37.212 28.7577 37.2515C28.3126 37.2755 27.8621 37.1773 27.4218 37.3069C27.3881 36.898 27.2384 36.751 26.8331 36.749C26.0737 36.745 25.3144 36.7336 24.5557 36.755C24.2671 36.763 24.1538 36.6996 24.1012 36.3942C23.7161 34.1519 23.3088 31.9136 22.9008 29.676C22.8597 29.4495 22.8826 29.2597 23.0208 29.0746C23.1045 28.963 23.1712 28.8381 23.2319 28.7132C23.3513 28.4699 23.4673 28.3123 23.8146 28.3704C24.1889 28.4332 24.524 28.2321 24.7985 27.9608C25.1586 27.6047 25.5255 27.2552 25.8896 26.9025C26.3529 27.0802 26.7177 27.4042 27.0907 27.7123C27.2984 27.8833 27.4798 28.0851 27.6673 28.2789C27.7387 28.3524 27.8385 28.4205 27.7974 28.5508Z" fill="#DF7E83"/>
<path d="M27.7974 28.5508C27.3354 27.9963 26.7993 27.5252 26.1904 27.135C26.0831 27.0662 25.9631 27.0127 25.8889 26.9025C26.4486 26.3386 27.0117 25.7773 27.5661 25.2081C27.6767 25.0951 27.7839 25.0991 27.9161 25.1406C28.3692 25.2822 28.8056 25.4633 29.2372 25.6611C29.5231 25.792 29.8373 25.7379 29.9749 25.4573C30.2885 25.6858 30.6028 25.9143 30.917 26.1421C29.6479 26.6533 28.6127 27.4617 27.7974 28.5508Z" fill="#DA636E"/>
<path d="M16.2629 36.7477C15.5677 36.7477 14.8724 36.7377 14.1778 36.7531C13.931 36.7584 13.8386 36.7043 13.848 36.4384C13.8696 35.8364 13.8561 35.233 13.8541 34.6303C13.8528 34.2161 13.6862 33.9963 13.378 33.9923C13.0624 33.9882 12.8776 34.2268 12.8763 34.6484C12.8742 35.2511 12.8675 35.8537 12.8803 36.4564C12.885 36.6675 12.8466 36.7604 12.6031 36.7531C11.974 36.735 11.3434 36.7524 10.7136 36.745C9.7364 36.7337 9.00473 36.0462 9.0054 35.0867C9.00675 33.8098 8.88536 32.5223 9.20974 31.2629C9.992 28.2228 11.8876 26.1976 14.8764 25.1646C15.1091 25.0845 15.2487 25.1312 15.4146 25.2989C16.2582 26.1522 17.1201 26.988 17.9644 27.8406C18.3346 28.2147 18.7399 28.4626 19.2915 28.3544C19.417 28.3297 19.4648 28.3985 19.5161 28.4874C19.6611 28.7392 19.8088 28.9905 19.9605 29.2384C20.0212 29.3379 20.0192 29.4321 19.999 29.545C19.5883 31.8301 19.1769 34.1145 18.781 36.4023C18.7332 36.6796 18.632 36.7624 18.3501 36.7537C17.6535 36.733 16.9582 36.7477 16.2629 36.7477Z" fill="#DF7F83"/>
<path d="M20.8142 22.1406C19.0393 22.0844 17.1059 20.5056 16.5805 18.6802C16.443 18.2025 16.3728 17.7141 16.3749 17.2163C16.3762 16.7646 16.3897 16.3116 16.3701 15.8606C16.3573 15.5593 16.3573 15.3695 16.7673 15.3281C17.2326 15.282 17.5435 14.8136 17.5496 14.3125C17.5577 13.6884 17.5496 13.0644 17.551 12.4403C17.5537 11.4348 18.282 10.8555 19.278 11.0753C19.7642 11.1822 20.2397 11.3252 20.7394 11.3806C21.5385 11.4688 22.3194 11.3994 23.0949 11.2069C23.2622 11.1655 23.4213 11.0893 23.5994 11.0933C23.855 11.0092 23.9656 11.1214 23.9777 11.368C23.9817 11.4428 23.9838 11.5183 23.9838 11.5931C23.9844 13.5688 23.9864 15.5446 23.9811 17.5203C23.9804 17.7962 23.9932 18.0815 23.8118 18.3234C22.7328 18.6274 22.3788 19.4045 22.8475 20.4415C22.8886 20.6366 22.7254 20.7348 22.6256 20.8437C22.1144 21.3989 21.5473 21.886 20.8142 22.1406Z" fill="#FEDCCD"/>
<path d="M23.8759 10.0557C23.2872 10.0891 22.741 10.3276 22.1583 10.4031C21.3801 10.504 20.6234 10.4372 19.8749 10.2214C19.2808 10.0504 18.6867 9.9909 18.0844 10.1947C17.2064 10.4913 16.5948 11.2951 16.5779 12.2152C16.5664 12.8606 16.5685 13.506 16.5772 14.1515C16.5799 14.384 16.5064 14.4374 16.2879 14.3519C16.006 14.241 15.714 14.1555 15.4288 14.0526C15.1914 13.9671 15.0586 13.806 15.0599 13.5428C15.066 12.4884 15.0363 11.4328 15.0788 10.3804C15.1442 8.74613 16.557 7.24078 18.2153 6.9655C18.864 6.85793 19.5148 6.91272 20.1649 6.90537C20.9896 6.89669 21.8151 6.90938 22.6398 6.91272C22.7922 6.96751 22.8819 7.09179 22.9649 7.21539C23.5057 8.02252 23.8759 8.89112 23.9157 9.8753C23.9191 9.93945 23.9292 10.0043 23.8759 10.0557Z" fill="#756E78"/>
<path d="M23.876 10.0557C23.7903 9.54185 23.7519 9.02002 23.559 8.52692C23.3304 7.94429 23.0343 7.40176 22.6405 6.912C23.1942 6.90866 23.7478 6.8973 24.3015 6.90465C24.9718 6.91267 25.4681 7.39641 25.5066 8.05922C25.545 8.73338 25.9449 9.12759 26.62 9.15699C27.3267 9.18772 27.8224 9.65744 27.8365 10.3697C27.8567 11.402 27.8432 12.4356 27.8412 13.4686C27.8405 13.7712 27.6942 13.9764 27.3989 14.0732C27.121 14.1648 26.8425 14.255 26.5694 14.3585C26.361 14.4374 26.2949 14.3692 26.2969 14.1614C26.3037 13.6343 26.2686 13.1051 26.3057 12.5799C26.4102 11.0933 25.3414 10.0243 23.876 10.0557Z" fill="#665E66"/>
<path d="M19.7008 36.7477C19.9786 35.1976 20.2518 33.6762 20.5235 32.1555C20.6503 31.4473 20.7791 30.739 20.8958 30.0295C20.9288 29.831 20.9976 29.7515 21.2215 29.7555C21.9404 29.7682 21.931 29.7582 22.055 30.4664C22.4071 32.4655 22.7638 34.4633 23.13 36.4597C23.1704 36.6789 23.161 36.7571 22.9054 36.7537C21.844 36.7404 20.7825 36.7477 19.7008 36.7477Z" fill="#F1F8FE"/>
<path d="M23.8125 18.3227C23.9581 16.027 23.8394 13.7292 23.8812 11.4328C23.8853 11.223 23.8664 11.0659 23.5994 11.0927C24.5158 10.8401 25.3089 11.4067 25.3231 12.3348C25.3332 12.9695 25.3204 13.6042 25.3251 14.239C25.3305 14.8911 25.673 15.2766 26.3265 15.3708C26.4162 15.3835 26.5059 15.3755 26.5012 15.5005C26.4621 16.5495 26.6259 17.6105 26.3137 18.6434C26.3076 18.6628 26.2914 18.6795 26.2597 18.7283C25.8808 18.3294 25.3918 18.3054 24.8854 18.3227C24.5293 18.3361 24.1705 18.3241 23.8125 18.3227Z" fill="#FECABD"/>
<path d="M23.7815 22.7098C23.7882 23.1141 23.8408 23.4649 24.0324 23.7749C24.1173 23.9125 24.0506 23.96 23.9481 24.0241C23.1591 24.5165 22.3707 25.0103 21.5858 25.5094C21.4792 25.5769 21.403 25.5789 21.2944 25.5094C20.5101 25.0096 19.7218 24.5159 18.9328 24.0228C18.8323 23.96 18.7602 23.9172 18.8472 23.7775C19.0407 23.4689 19.0825 23.1147 19.1101 22.7199C19.8675 22.9991 20.6309 23.1735 21.4232 23.1742C22.2224 23.1749 22.9945 23.0205 23.7815 22.7098Z" fill="#FEDCCD"/>
<path d="M16.1052 24.6381C16.3952 24.4617 16.6535 24.3067 16.9091 24.147C17.0574 24.0542 17.193 24.0755 17.3332 24.1644C18.3576 24.8098 19.382 25.4546 20.409 26.0954C20.5486 26.1822 20.6019 26.243 20.4407 26.37C20.0597 26.6713 19.6888 26.9867 19.3152 27.2974C19.1534 27.4323 18.9814 27.4691 18.8209 27.3121C17.92 26.4288 17.0224 25.5415 16.1052 24.6381Z" fill="#D74A54"/>
<path d="M26.7763 24.6389C25.8579 25.5422 24.967 26.4208 24.0735 27.2975C23.917 27.4511 23.7477 27.4485 23.5798 27.3101C23.1961 26.9941 22.8165 26.6741 22.4287 26.3634C22.2952 26.2565 22.3066 26.1983 22.4482 26.1101C23.4847 25.464 24.5185 24.8133 25.551 24.1605C25.7081 24.0609 25.8511 24.0689 26.0049 24.1665C26.2416 24.3162 26.483 24.4598 26.7763 24.6389Z" fill="#D74A54"/>
<path d="M21.4421 28.766C20.9397 28.9404 20.705 28.6604 20.5 28.2588C20.2599 27.7885 20.2336 27.7938 20.6463 27.4617C20.912 27.2479 21.1582 26.8571 21.4489 26.8711C21.7186 26.8838 21.9735 27.2459 22.2311 27.4591C22.6418 27.7978 22.6405 27.7992 22.3768 28.2482C22.3714 28.2575 22.3646 28.2662 22.3606 28.2762C22.1967 28.6965 21.927 28.9317 21.4421 28.766Z" fill="#D0EBF8"/>
<path d="M14.1879 14.1622C14.4401 14.6373 14.7962 14.8812 15.2359 15.0141C15.3384 15.0455 15.4011 15.087 15.3998 15.2112C15.3937 15.7478 15.3978 16.2849 15.3971 16.8215C15.3971 16.8943 15.4052 16.9618 15.304 16.9972C14.6681 17.2197 14.1218 16.8502 14.1205 16.1861C14.1192 15.5954 14.1232 15.0054 14.1293 14.4148C14.1293 14.3527 14.1569 14.2905 14.1879 14.1622Z" fill="#9AC2F7"/>
<path d="M28.676 14.1936C28.8055 14.4275 28.7543 14.6466 28.7583 14.8571C28.7657 15.2967 28.7617 15.7364 28.7603 16.176C28.759 16.7794 28.5459 16.9992 27.9477 16.9978C27.3961 16.9965 27.4892 17.06 27.4831 16.5415C27.4784 16.1232 27.4838 15.705 27.4811 15.2867C27.4804 15.1651 27.477 15.0609 27.6348 15.0154C28.0853 14.8871 28.4468 14.6326 28.676 14.1936Z" fill="#9AC2F7"/>
<path d="M20.8143 22.1406C21.2331 21.8593 21.6688 21.6081 22.0639 21.2867C22.3708 21.0375 22.6075 20.7415 22.8476 20.4408C23.2974 21.0328 23.9394 21.1009 24.6286 21.0628C23.4889 21.9234 22.244 22.3564 20.8143 22.1406Z" fill="#FECABD"/>
<path d="M24.6589 19.297C24.8645 19.2976 25.0709 19.2936 25.2766 19.2983C25.5241 19.3043 25.6677 19.4446 25.6684 19.6798C25.6691 19.9157 25.5167 20.062 25.2779 20.0693C24.8558 20.0814 24.4329 20.0827 24.0108 20.0687C23.7768 20.0613 23.6183 19.9264 23.621 19.6818C23.6237 19.4219 23.7849 19.299 24.0418 19.297C24.2475 19.295 24.4532 19.2963 24.6589 19.297Z" fill="#D9626D"/>
<path d="M31.6945 37.7806C30.1805 37.3704 29.0672 36.449 28.3058 35.1134C26.5288 31.9958 28.1561 27.9835 31.6062 26.9445C31.6567 26.9292 31.7127 26.9298 31.766 26.9225C32.2488 27.0154 32.5941 27.3481 32.9387 27.6454C33.8842 28.4592 34.5572 29.4581 34.8667 30.6768C34.7885 31.1345 34.4594 31.4693 34.2659 31.8715C34.0946 32.2269 33.866 32.5557 33.6967 32.9131C33.545 33.2325 33.5949 33.3748 33.8997 33.582C34.1431 33.6675 34.3953 33.6067 34.6422 33.6267C34.9214 33.6501 34.9753 33.7096 34.9052 33.9701C34.4736 35.573 33.516 36.7904 32.1194 37.6824C31.9926 37.7619 31.8557 37.8294 31.6945 37.7806Z" fill="#9AC3F8"/>
<path d="M31.6946 37.7806C32.1154 37.669 32.4465 37.3971 32.7608 37.1298C33.7757 36.2679 34.5094 35.2176 34.8398 33.914C34.8823 33.7457 34.8425 33.7149 34.6827 33.7062C34.4062 33.6915 34.123 33.773 33.8539 33.6534C33.9294 33.5526 34.0427 33.5566 34.1493 33.5552C34.5613 33.5492 34.974 33.5526 35.3861 33.5539C35.6403 33.5546 35.7678 33.6675 35.7678 33.924C35.7678 34.0851 35.7597 34.2468 35.7799 34.4071C35.8136 34.6744 35.966 34.8274 36.1872 34.8274C36.4205 34.8267 36.544 34.6864 36.5622 34.3964C36.5696 34.2782 36.5696 34.1599 36.5649 34.0416C36.5554 33.8045 36.6404 33.6441 36.8663 33.5245C37.221 33.3367 37.2338 33.0387 36.8987 32.8296C36.695 32.7027 36.6316 32.5436 36.6289 32.3225C36.6215 31.6891 36.6546 31.0557 36.5736 30.4229C36.5345 30.1169 36.4361 29.8811 36.1373 29.7675C35.8682 29.6653 35.6147 29.7688 35.3712 30.0528C35.2229 30.2258 35.1359 30.4396 34.9835 30.6094C34.9471 30.6501 34.9019 30.6795 34.8425 30.6755C34.6719 30.4717 34.6517 30.2058 34.5505 29.9726C33.9908 28.6817 33.1054 27.6855 31.8638 27.002C31.8274 26.982 31.7984 26.9492 31.7654 26.9225C33.2935 26.4715 34.7535 26.6673 36.1245 27.4376C38.2744 28.645 39.3608 30.9922 38.9299 33.4102C38.5246 35.6833 36.6579 37.52 34.2922 37.9463C33.4183 38.1047 32.545 38.0813 31.6946 37.7806Z" fill="#7EB1F8"/>
<path d="M34.8425 30.6755C34.9773 30.4697 35.1082 30.2613 35.2484 30.0588C35.502 29.6947 35.8297 29.553 36.1588 29.6553C36.4738 29.7528 36.6727 30.0441 36.6808 30.4657C36.6929 31.1212 36.6936 31.7766 36.6902 32.4321C36.6896 32.5878 36.7064 32.6887 36.8932 32.7288C37.1353 32.7809 37.252 32.9633 37.2412 33.2058C37.2311 33.435 37.1036 33.5994 36.877 33.6388C36.7064 33.6688 36.6687 33.747 36.6734 33.8987C36.6801 34.1025 36.6767 34.3076 36.6639 34.5107C36.6477 34.776 36.494 34.9223 36.229 34.9403C35.9518 34.9591 35.7562 34.8348 35.7138 34.5595C35.6814 34.349 35.6874 34.1305 35.7009 33.9167C35.7137 33.721 35.6531 33.6535 35.448 33.6575C34.9166 33.6675 34.2261 33.8045 33.8538 33.6515C33.4728 33.4156 33.4189 33.2205 33.6374 32.8283C34.0373 32.1107 34.4405 31.3938 34.8425 30.6755Z" fill="black"/>
<path d="M31.1476 34.1225C31.6069 34.1225 31.996 34.1165 32.3844 34.1245C32.752 34.1319 32.9489 34.3069 32.9495 34.6069C32.9502 34.9103 32.7587 35.082 32.3865 35.0893C31.6817 35.1034 30.9763 35.1348 30.2716 35.0786C29.7584 35.0379 29.5588 34.6377 29.8583 34.2161C30.3195 33.5659 30.803 32.9312 31.2751 32.2884C31.4349 32.0713 31.588 31.8495 31.6952 31.6016C31.8692 31.1967 31.7566 30.8586 31.4012 30.7089C31.0418 30.5579 30.679 30.733 30.538 31.1479C30.4652 31.363 30.3458 31.5074 30.1199 31.5475C29.7915 31.6049 29.513 31.3042 29.5737 30.9642C29.7247 30.1149 30.6513 29.5236 31.5159 29.7261C32.4188 29.9379 32.9651 30.8466 32.6967 31.7038C32.5139 32.2884 32.141 32.7682 31.791 33.2586C31.5927 33.5365 31.3837 33.8071 31.1476 34.1225Z" fill="black"/>
<path d="M34.9673 32.4796C35.1959 32.0693 35.4245 31.6584 35.6531 31.2482C35.6733 31.2528 35.6936 31.2569 35.7145 31.2615C35.7145 31.6925 35.7138 32.1234 35.7145 32.5537C35.7145 32.6687 35.647 32.6994 35.5459 32.6954C35.3726 32.6887 35.1999 32.684 35.0266 32.6787C34.9545 32.6279 34.9983 32.543 34.9673 32.4796Z" fill="#7BACF1"/>
<path d="M34.9677 32.4795C35.0408 32.5302 35.0252 32.6069 35.0273 32.6782C34.9765 32.6949 34.9067 32.7149 34.885 32.6629C34.8532 32.5888 34.9209 32.5335 34.9677 32.4795Z" fill="#98C0F4"/>
</svg>
