<svg width="46" height="46" viewBox="0 0 46 46" fill="none" xmlns="http://www.w3.org/2000/svg">
<rect width="46" height="46" rx="23" fill="#EBEBEB"/>
<path d="M4.05606 26.0641C4.22691 25.7805 4.50588 25.752 4.83408 25.7539C6.58897 25.7662 8.34483 25.7596 10.0997 25.7605C10.2078 25.7605 10.3169 25.7577 10.4241 25.7719C10.6972 25.8091 10.8575 25.9718 10.8806 26.2401C10.9048 26.5237 10.7687 26.7207 10.4849 26.794C10.371 26.8235 10.2474 26.8263 10.1277 26.8263C8.3487 26.8282 6.5687 26.8225 4.78968 26.832C4.46727 26.8339 4.22595 26.7578 4.06667 26.5275C4.01262 26.4229 3.95374 26.2325 4.05606 26.0641Z" fill="#010101"/>
<path d="M27.7607 17.6974C27.8099 17.3386 28.0426 17.1883 28.3852 17.1873C29.6005 17.1835 30.8168 17.1769 32.0321 17.1902C32.6441 17.1968 33.0167 17.5328 33.0437 18.118C33.0563 18.3787 33.1991 18.3293 33.3459 18.3293C34.5612 18.3302 35.7774 18.3293 36.9927 18.3302C38.181 18.3302 38.6791 18.8212 38.6829 19.9946C38.6878 21.5134 38.6965 23.0321 38.6907 24.5509C38.6897 24.7755 38.7476 24.9201 38.9426 25.0486C39.4224 25.3645 39.8857 25.7043 40.3548 26.0345C40.905 26.4218 41.1126 26.9442 40.9417 27.5875C40.5884 28.9274 40.2322 30.2663 39.8519 31.5985C39.6125 32.4369 38.8625 33.0326 37.985 33.0916C37.737 33.1078 37.6443 33.2077 37.5362 33.399C36.93 34.4791 36.0207 35.1538 34.7697 35.3498C33.341 35.5734 32.2097 34.736 32.0582 33.3248C32.0369 33.1221 31.9626 33.1049 31.7975 33.1059C27.8611 33.1088 23.9256 33.1097 19.9892 33.103C19.7836 33.103 19.7044 33.183 19.6156 33.3467C18.9968 34.4857 18.046 35.1785 16.739 35.3669C15.3809 35.562 14.2505 34.696 14.1212 33.3505C14.1009 33.1421 14.0285 33.1021 13.8374 33.1049C13.2235 33.1154 12.6095 33.1116 11.9956 33.1078C11.1037 33.103 10.6867 32.5778 10.9126 31.7394C11.2485 30.4928 11.596 29.25 11.9251 28.0014C12.0217 27.637 12.2196 27.4438 12.6115 27.4743C12.9667 27.5057 13.1617 27.7559 13.1038 28.129C13.0594 28.4097 12.9638 28.679 12.8914 28.9531C12.6597 29.8219 12.4203 30.6879 12.1896 31.5567C12.0912 31.9297 12.1037 31.9478 12.4773 31.9506C12.9445 31.9544 13.4126 31.944 13.8798 31.9544C14.1212 31.9602 14.2862 31.884 14.404 31.6661C14.5797 31.3426 14.8017 31.0476 15.0768 30.7954C15.8085 30.0931 16.6551 29.662 17.7034 29.6734C18.631 29.6829 19.3405 30.0541 19.8067 30.8544C19.9255 31.0514 19.9834 31.2683 20.0307 31.4901C20.1253 31.9326 20.1311 31.9383 20.6031 31.9392C22.4555 31.9411 24.3079 31.9402 26.1612 31.9402C26.6786 31.9402 27.196 31.9326 27.7134 31.9421C28.003 31.9478 28.1603 31.8279 28.225 31.5538C28.28 31.3235 28.3389 31.0932 28.4065 30.8658C29.2125 27.9758 29.9838 25.0752 30.7734 22.1804C31.0823 21.0471 31.3979 19.9165 31.6952 18.7803C31.8033 18.3673 31.785 18.3378 31.341 18.3359C30.4152 18.3331 29.4895 18.3359 28.5638 18.335C28.4074 18.335 28.2501 18.3407 28.0986 18.294C27.808 18.2055 27.7047 18.02 27.7607 17.6974Z" fill="black"/>
<path d="M19.7015 30.839C18.9234 29.6333 17.5296 29.5505 16.3838 30.0159C15.9117 30.2072 15.515 30.5107 15.1347 30.8371C14.7524 31.0113 14.3547 30.9685 13.9715 30.8752C13.6607 30.7991 13.4927 30.4679 13.5719 30.131C13.7003 29.5877 13.8479 29.0491 14.0159 28.5171C14.1578 28.0641 14.4985 27.9052 14.9841 28.0403C15.9146 28.2992 16.8558 28.4648 17.8288 28.4676C20.0586 28.4743 22.0403 27.7891 23.7711 26.414C26.0222 24.625 27.2423 22.2717 27.5966 19.4663C27.6525 19.021 27.6313 18.5661 27.5908 18.116C27.5792 17.9866 27.5348 17.8571 27.6381 17.7429C27.6796 17.7277 27.7211 17.7125 27.7616 17.6973C27.8321 18.1217 27.972 18.2492 28.4006 18.2511C29.4837 18.2549 30.5667 18.2578 31.6498 18.2482C31.8882 18.2463 31.9394 18.3158 31.8786 18.5375C30.7685 22.6066 29.6632 26.6767 28.556 30.7467C28.5474 30.78 28.5223 30.8095 28.5049 30.84C28.3659 30.9618 28.1941 30.9542 28.0271 30.9542C25.4121 30.9561 22.7971 30.9561 20.1812 30.9551C20.0113 30.9551 19.8453 30.9437 19.7015 30.839Z" fill="#E4646E"/>
<path d="M13.0506 25.9508C11.536 24.8992 10.4211 23.5403 9.76664 21.8227C7.87371 16.8533 11.1345 11.3093 16.4474 10.4661C21.2381 9.70674 25.6756 12.867 26.4188 17.5661C26.4275 17.6232 26.4545 17.6774 26.4729 17.7326C26.665 18.1066 26.6389 18.5234 26.6273 18.9098C26.5984 19.87 26.4565 20.8168 26.1177 21.7323C25.3503 23.8068 23.9844 25.3693 22.0355 26.437C20.9157 27.0508 19.712 27.3753 18.4253 27.4581C16.625 27.5733 14.9695 27.1584 13.4193 26.2781C13.2726 26.1963 13.1345 26.103 13.0506 25.9508Z" fill="black"/>
<path d="M13.0506 25.9508C14.3585 26.7749 15.7717 27.3031 17.3345 27.3659C20.8125 27.5038 23.4766 26.0898 25.3126 23.1949C26.248 21.719 26.6138 20.0775 26.499 18.337C26.4855 18.1362 26.4816 17.9354 26.4739 17.7336C26.8619 17.7365 27.249 17.7403 27.637 17.7432C27.9237 19.694 27.4488 21.5106 26.5453 23.2168C25.1659 25.8223 23.0432 27.5695 20.13 28.3042C18.4089 28.7381 16.6887 28.6496 14.9898 28.1405C14.4811 27.9882 14.1993 28.1462 14.0632 28.662C13.9367 29.1416 13.8064 29.6202 13.6732 30.0989C13.5602 30.5043 13.7745 30.8212 14.1954 30.8373C14.5081 30.8497 14.8209 30.8383 15.1346 30.8383C14.8547 31.1637 14.5786 31.4921 14.4058 31.8889C14.3576 31.9993 14.2842 32.0449 14.1568 32.044C13.4357 32.0383 12.7146 32.0411 11.9569 32.0411C12.2156 31.0838 12.4646 30.1598 12.7137 29.2358C12.8034 28.9037 12.8971 28.5735 12.982 28.2404C13.0863 27.8293 13.0139 27.6856 12.6133 27.4753C12.759 26.9671 12.9048 26.459 13.0506 25.9508Z" fill="#DA4655"/>
<path d="M8.0427 28.0453C8.59485 28.0453 9.14699 28.0406 9.69914 28.0472C10.0775 28.052 10.2967 28.2433 10.3053 28.5563C10.315 28.8846 10.0891 29.1073 9.69817 29.1102C8.5823 29.1187 7.46546 29.1187 6.34959 29.1092C5.98664 29.1064 5.7569 28.8789 5.75593 28.5735C5.75497 28.267 5.98664 28.0529 6.35055 28.0482C6.91428 28.0396 7.47898 28.0453 8.0427 28.0453Z" fill="#010101"/>
<path d="M8.60066 30.33C8.8053 30.33 9.0109 30.3205 9.21458 30.3329C9.52347 30.351 9.70398 30.5232 9.72425 30.8268C9.74356 31.1351 9.56884 31.3492 9.27346 31.373C8.83233 31.4092 8.3825 31.4092 7.94136 31.3701C7.64309 31.3435 7.47223 31.1132 7.50023 30.8154C7.52725 30.5242 7.70873 30.3415 8.02438 30.331C8.21551 30.3253 8.40856 30.33 8.60066 30.33Z" fill="#010101"/>
<path d="M31.4654 28.561C33.1817 28.5553 34.898 28.5505 36.6133 28.5429C37.1596 28.5401 37.3305 28.3735 37.3334 27.853C37.7543 27.9101 38.1751 27.912 38.596 27.8521C38.5998 28.3678 38.7514 28.5372 39.2794 28.5363C39.5497 28.5353 39.5642 28.6124 39.4947 28.8408C39.292 29.506 39.1143 30.1787 38.9261 30.8487C38.5024 31.0105 38.0786 31.0105 37.6558 30.8477C36.8401 29.6021 35.4549 29.5678 34.3458 30.0084C33.8622 30.2006 33.4568 30.5118 33.0678 30.8468C32.4307 31.0342 31.7839 30.9438 31.1401 30.9105C30.9634 30.901 30.8534 30.7459 30.8727 30.5822C30.9606 29.878 31.0938 29.1843 31.4654 28.561Z" fill="#FEA85F"/>
<path d="M38.5979 27.852C38.3547 28.0518 37.5805 28.0518 37.3353 27.8529C37.2629 27.6721 37.1326 27.5503 36.9521 27.478C36.3169 27.4276 35.6798 27.4618 35.0447 27.458C34.0475 27.4514 33.0494 27.4476 32.0523 27.4618C31.7733 27.4656 31.6729 27.3809 31.7463 27.1164C31.9741 26.2932 32.1845 25.4663 32.4278 24.6479C32.4606 24.5385 32.4761 24.3672 32.6797 24.4309C32.8458 25.2741 33.3274 25.6757 34.2049 25.6804C35.3594 25.6871 36.5139 25.6871 37.6683 25.6785C37.8971 25.6766 38.0834 25.7337 38.2659 25.8679C38.7089 26.1933 39.1626 26.5045 39.6115 26.8233C39.6897 26.8785 39.7678 26.9346 39.8354 27.0012C39.9426 27.1059 39.9339 27.242 39.8943 27.3686C39.8528 27.5047 39.7244 27.4732 39.6202 27.4752C39.4879 27.4771 39.3557 27.4828 39.2234 27.4752C38.9223 27.4571 38.7118 27.5751 38.5979 27.852Z" fill="#FEC169"/>
<path d="M32.6788 24.4309C32.4269 24.6508 32.4549 24.981 32.3632 25.2589C32.1624 25.8641 32.0215 26.4874 31.8468 27.1012C31.7811 27.3315 31.8024 27.4295 32.0939 27.4266C33.5862 27.4114 35.0786 27.419 36.5709 27.4219C36.6983 27.4219 36.8373 27.379 36.9512 27.479C34.9444 27.478 32.9366 27.4723 30.9297 27.4818C30.6334 27.4837 30.5707 27.4314 30.6537 27.1297C31.34 24.6555 32.0089 22.1775 32.6788 19.6986C32.7242 19.5311 32.7445 19.3922 32.9839 19.3941C34.3903 19.4036 35.7967 19.3979 37.2022 19.3988C37.2476 19.3988 37.2929 19.4217 37.3383 19.434C37.1974 19.5901 37.0072 19.5501 36.8325 19.5511C36.039 19.5568 35.2465 19.5606 34.453 19.5501C34.1538 19.5463 33.9945 19.6529 33.9163 19.9469C33.7667 20.5065 33.6422 21.0746 33.424 21.6151C33.0775 22.5287 32.7908 23.4574 32.6788 24.4309Z" fill="#FEA85F"/>
<path d="M19.7014 30.8392C22.6359 30.8392 25.5704 30.8402 28.5049 30.8402C28.4189 31.1837 28.3282 31.5253 28.2481 31.8698C28.2143 32.0173 28.1274 32.044 27.9904 32.044C25.3957 32.0411 22.801 32.0402 20.2063 32.0449C20.0373 32.0449 19.9775 31.9954 19.9717 31.8251C19.9601 31.4778 19.8433 31.1542 19.7014 30.8392Z" fill="#DA4655"/>
<path d="M17.6416 30.8326C18.5818 30.8307 19.103 31.5026 18.8327 32.398C18.5065 33.4772 17.742 34.1043 16.6386 34.306C15.6888 34.4802 15.0295 33.7484 15.2245 32.7844C15.4301 31.7662 16.5827 30.8345 17.6416 30.8326Z" fill="#5D5360"/>
<path d="M36.8238 32.0087C36.8131 33.301 35.2156 34.5933 34.0225 34.2745C33.3786 34.1023 33.0485 33.617 33.1344 32.9699C33.286 31.8317 34.4752 30.8211 35.649 30.8335C36.3981 30.8411 36.8295 31.2731 36.8238 32.0087Z" fill="#5D5360"/>
<path d="M37.596 23.4336C37.595 23.8124 37.736 24.2929 37.5526 24.5385C37.3769 24.7745 36.8566 24.6051 36.4888 24.6098C35.7426 24.6213 34.9974 24.6165 34.2513 24.6117C33.7966 24.6089 33.7001 24.4795 33.8169 24.0379C33.9501 23.5345 34.0823 23.0302 34.2233 22.5287C34.3758 21.9834 34.7542 21.6827 35.3237 21.6874C36.0766 21.6931 36.8305 21.6265 37.5815 21.7236C37.4097 21.8768 37.1964 21.8197 36.9985 21.8264C36.6761 21.8368 36.3527 21.8283 36.0293 21.8311C35.8199 21.833 35.6944 21.9253 35.6461 22.128C35.5863 22.3802 35.4917 22.6248 35.4424 22.8798C35.3749 23.2271 35.4395 23.3137 35.7919 23.3233C36.2465 23.3356 36.7012 23.3242 37.1558 23.328C37.3083 23.3318 37.4686 23.3166 37.596 23.4336Z" fill="#C2DCFE"/>
<path d="M31.4654 28.5611C31.3052 29.1416 31.1372 29.7201 30.9866 30.3035C30.8756 30.7346 30.9654 30.8383 31.4094 30.8402C31.9625 30.843 32.5166 30.8449 33.0697 30.8478C32.8052 31.1685 32.5321 31.4844 32.3631 31.8689C32.3081 31.9945 32.2328 32.0459 32.0909 32.0449C31.2502 32.0392 30.4094 32.0383 29.5686 32.0459C29.3891 32.0478 29.3312 31.9945 29.3785 31.8213C29.6642 30.784 29.9499 29.7468 30.2269 28.7067C30.2636 28.5696 30.338 28.543 30.4567 28.5449C30.7945 28.5506 31.1295 28.5554 31.4654 28.5611Z" fill="#FE8A5A"/>
<path d="M33.424 21.6153C33.4308 21.0757 33.6374 20.578 33.7783 20.0689C33.9511 19.4446 33.9694 19.4513 34.6316 19.4485C35.5342 19.4456 36.4358 19.4389 37.3383 19.4332C37.5275 19.4342 37.5748 19.5617 37.597 19.713C37.7196 20.5714 37.6819 20.6151 36.8093 20.6151C36.3045 20.6151 35.8006 20.617 35.2957 20.6151C34.4878 20.6142 33.8912 20.9967 33.424 21.6153Z" fill="#FDC168"/>
<path d="M37.596 23.4337C36.9464 23.4337 36.2958 23.4233 35.6462 23.4394C35.3421 23.4471 35.2456 23.3015 35.2987 23.0483C35.3817 22.6563 35.4917 22.269 35.594 21.8817C35.6394 21.7094 35.7881 21.7322 35.9184 21.7313C36.4715 21.7284 37.0256 21.7275 37.5787 21.7256C37.6279 22.2947 37.6096 22.8637 37.596 23.4337Z" fill="#DAE8FD"/>
<path d="M37.6578 30.8478C38.0815 30.8478 38.5053 30.8478 38.9281 30.8487C38.8682 31.3321 38.6925 31.7451 38.2089 31.9583C38.0545 32.0268 37.9029 32.0696 37.9097 31.8032C37.9184 31.4625 37.7774 31.1571 37.6578 30.8478Z" fill="#FC8A59"/>
<path d="M25.443 18.8889C25.4256 22.9923 22.0191 26.341 17.8742 26.3296C13.681 26.3181 10.288 22.9456 10.3111 18.8118C10.3334 14.7256 13.7553 11.395 17.9157 11.4092C22.0655 11.4235 25.4604 14.797 25.443 18.8889Z" fill="#EBE9EB"/>
<path d="M17.5875 32.5436C17.5972 32.8167 17.3308 33.0964 17.0489 33.1079C16.7767 33.1183 16.5277 32.8804 16.5122 32.5959C16.4968 32.3095 16.7149 32.0639 16.9987 32.0478C17.3066 32.0297 17.5769 32.2571 17.5875 32.5436Z" fill="#010101"/>
<path d="M34.9945 32.0468C35.3044 32.0468 35.509 32.2466 35.5158 32.5578C35.5235 32.8575 35.2716 33.1154 34.982 33.1068C34.6982 33.0983 34.4289 32.8195 34.4395 32.5444C34.4501 32.2732 34.702 32.0468 34.9945 32.0468Z" fill="#010101"/>
<path d="M22.4275 14.6236C22.6031 14.5322 22.6504 14.7073 22.7161 14.7834C23.5964 15.8083 24.0771 17.0026 24.2383 18.3282C24.2519 18.4386 24.2808 18.5661 24.1785 18.6622C23.8793 18.5185 23.5916 18.3415 23.2315 18.4043C23.0887 18.4291 22.9478 18.451 22.83 18.5423C22.6784 18.6603 22.6591 18.8211 22.6939 18.9915C22.7306 19.1675 22.8647 19.2427 23.0298 19.2655C23.4285 19.3198 23.8155 19.2903 24.1756 19.0914C24.3426 19.5329 24.1544 19.9536 24.0559 20.3627C23.4545 22.8693 21.3434 24.7335 18.7603 25.0751C18.5412 25.1037 18.3231 25.2255 18.1039 25.077C18.2922 24.7468 18.3279 24.3909 18.2922 24.0207C18.2709 23.7952 18.1696 23.6401 17.9263 23.6106C17.6676 23.5792 17.5209 23.7124 17.4485 23.9418C17.3172 24.3586 17.462 24.7249 17.6686 25.0799C17.322 25.2436 16.9803 25.0932 16.657 25.0247C14.2988 24.5241 12.6983 23.1319 11.8575 20.9147C11.6394 20.3409 11.429 19.7347 11.5863 19.0914C11.9077 19.277 12.2581 19.3084 12.6211 19.2798C12.8585 19.2608 13.0458 19.1885 13.0806 18.9249C13.1124 18.6803 12.957 18.4824 12.6751 18.4281C12.4126 18.3777 12.152 18.3834 11.9019 18.5023C11.8083 18.5471 11.7253 18.6327 11.6046 18.5927C11.4029 18.2816 11.568 17.9618 11.6249 17.6678C12.0979 15.2031 14.1607 13.1686 16.6608 12.7042C16.9591 12.649 17.2834 12.4853 17.5991 12.6851C17.5479 12.9801 17.3317 13.2371 17.4031 13.5625C17.4311 13.6891 17.4321 13.8214 17.5045 13.9346C17.6126 14.103 17.7738 14.1658 17.9678 14.1335C18.159 14.1021 18.2584 13.9746 18.2815 13.7938C18.3308 13.4027 18.3153 13.0201 18.1039 12.668C18.5142 12.5196 18.9061 12.6661 19.2961 12.7537C20.2826 12.9754 21.1697 13.4093 21.9554 14.0364C22.0635 14.123 22.2508 14.1915 22.2074 14.3971C21.8097 14.3876 21.5568 14.6264 21.3 14.8843C20.5422 15.6456 19.7681 16.3907 19.0113 17.152C18.8047 17.3595 18.602 17.4537 18.3086 17.3537C17.4948 17.0768 16.4398 17.6202 16.2737 18.6898C16.239 18.9115 16.2737 19.118 16.3452 19.3179C16.4388 19.5796 16.3664 19.7699 16.1695 19.9517C15.8896 20.2114 15.6202 20.4827 15.3529 20.7548C15.0768 21.0365 15.0469 21.2325 15.2409 21.4286C15.4281 21.6179 15.7216 21.6017 15.9813 21.3686C16.266 21.1136 16.5324 20.8395 16.7998 20.5673C16.9803 20.3827 17.1541 20.3133 17.436 20.3818C18.6754 20.6834 19.6957 19.6976 19.41 18.4747C19.3395 18.174 19.4138 17.9847 19.6214 17.7839C20.4013 17.0283 21.1581 16.2489 21.9506 15.5057C22.2228 15.2516 22.3348 14.9509 22.4275 14.6236Z" fill="#FEFEFE"/>
<path d="M22.4274 14.6236C22.5162 14.9301 22.4149 15.1651 22.1861 15.3868C21.3106 16.2338 20.4505 17.0959 19.5769 17.9448C19.4505 18.0675 19.4186 18.1617 19.4765 18.3378C19.687 18.9763 19.5654 19.5606 19.0817 20.0412C18.5875 20.5332 17.9852 20.6559 17.3249 20.4418C17.1579 20.3876 17.0682 20.4161 16.9562 20.5312C16.6483 20.8472 16.3326 21.1574 16.0141 21.4629C15.7332 21.7322 15.4146 21.7531 15.1858 21.5295C14.9455 21.2935 14.9619 21.0013 15.2428 20.7168C15.5536 20.4028 15.8664 20.0907 16.1888 19.788C16.3085 19.6757 16.3403 19.5806 16.2843 19.4198C16.0565 18.766 16.1907 18.1751 16.6849 17.6888C17.1801 17.2025 17.7825 17.0693 18.4418 17.3034C18.6377 17.3728 18.7246 17.2853 18.8385 17.173C19.7044 16.3156 20.576 15.4658 21.437 14.6037C21.6629 14.3772 21.8994 14.2763 22.2093 14.3981C22.2807 14.4723 22.3541 14.5475 22.4274 14.6236Z" fill="black"/>
<path d="M18.1049 12.6673C18.4177 12.9271 18.5412 13.7017 18.3221 14.0252C18.0972 14.3573 17.5817 14.3297 17.3964 13.9748C17.2265 13.6484 17.3336 12.9604 17.5981 12.6844C17.7661 12.6349 17.9341 12.6054 18.1049 12.6673Z" fill="#020202"/>
<path d="M11.6055 18.593C11.8806 18.3389 12.593 18.2313 12.9154 18.396C13.2736 18.5787 13.3006 19.0868 12.9637 19.3086C12.6336 19.5246 11.8488 19.4009 11.5872 19.0926C11.5216 18.9232 11.5534 18.7576 11.6055 18.593Z" fill="#020202"/>
<path d="M24.1756 19.0916C23.9102 19.3961 23.1804 19.5255 22.8242 19.3304C22.4729 19.1373 22.4622 18.6224 22.8059 18.415C23.1582 18.2028 23.9179 18.3398 24.1776 18.6624C24.1776 18.8051 24.1766 18.9479 24.1756 19.0916Z" fill="#010101"/>
<path d="M17.6696 25.08C17.3394 24.8249 17.1995 24.0808 17.4157 23.7296C17.6242 23.3909 18.1474 23.3994 18.3433 23.7458C18.5364 24.0855 18.4041 24.8221 18.1039 25.0771C17.9591 25.0781 17.8144 25.079 17.6696 25.08Z" fill="#010101"/>
<path d="M18.4736 18.8889C18.4669 19.2286 18.2294 19.457 17.88 19.457C17.5489 19.457 17.2439 19.1677 17.2516 18.8622C17.2593 18.5539 17.5769 18.2494 17.8858 18.2532C18.2005 18.2561 18.4804 18.5596 18.4736 18.8889Z" fill="#5C525F"/>
</svg>
