<svg width="48" height="48" viewBox="0 0 48 48" fill="none" xmlns="http://www.w3.org/2000/svg">
<g id="iconspace_Delivery">
<circle id="Shape" cx="24" cy="24" r="24" fill="#E6F0FC"/>
<path id="Shape_2" fill-rule="evenodd" clip-rule="evenodd" d="M28.5 27.75V16.5H34.3674C34.9121 16.5 35.4141 16.7953 35.6786 17.2715L38.8112 22.9102C38.935 23.1331 39 23.3838 39 23.6387V32.25C39 33.0784 38.3284 33.75 37.5 33.75H10.5C9.67157 33.75 9 33.0784 9 32.25V27.75H28.5Z" fill="white"/>
<path id="Shape_3" fill-rule="evenodd" clip-rule="evenodd" d="M35.25 27.75C35.25 26.9216 35.9216 26.25 36.75 26.25H39V29.25H36.75C35.9216 29.25 35.25 28.5784 35.25 27.75Z" fill="#FFC200"/>
<path id="Shape_4" fill-rule="evenodd" clip-rule="evenodd" d="M35.25 16.5H31.5V24H39V23.25L35.25 16.5Z" fill="#52ABE2"/>
<path id="Shape_5" fill-rule="evenodd" clip-rule="evenodd" d="M9 27.75H28.5V11.25H9V27.75Z" fill="#FFC200"/>
<path id="Shape_6" fill-rule="evenodd" clip-rule="evenodd" d="M9 21.75H28.5V15.75H9V21.75Z" fill="white"/>
<path id="Shape_7" fill-rule="evenodd" clip-rule="evenodd" d="M8.25 11.25V27.75C8.25 28.1642 8.58579 28.5 9 28.5H28.5C28.9142 28.5 29.25 28.1642 29.25 27.75V11.25C29.25 10.8358 28.9142 10.5 28.5 10.5H9C8.58579 10.5 8.25 10.8358 8.25 11.25ZM27.75 27H9.75V12H27.75V27Z" fill="#154E84"/>
<path id="Path" d="M32.25 23.25H38.25C38.6642 23.25 39 23.5858 39 24C39 24.4142 38.6642 24.75 38.25 24.75H31.5C31.0858 24.75 30.75 24.4142 30.75 24V16.5C30.75 16.0858 31.0858 15.75 31.5 15.75C31.9142 15.75 32.25 16.0858 32.25 16.5V23.25Z" fill="#154E84"/>
<path id="Shape_8" fill-rule="evenodd" clip-rule="evenodd" d="M27.75 16.5V27H9C8.58579 27 8.25 27.3358 8.25 27.75V32.25C8.25 33.4926 9.25736 34.5 10.5 34.5H37.5C38.7426 34.5 39.75 33.4926 39.75 32.25V23.6387C39.75 23.2563 39.6526 22.8802 39.4669 22.546L36.3342 16.9073C35.9374 16.193 35.1845 15.75 34.3674 15.75H28.5C28.0858 15.75 27.75 16.0858 27.75 16.5ZM29.25 27.75V17.25H34.3674C34.6398 17.25 34.8907 17.3977 35.023 17.6358L38.1556 23.2745C38.2175 23.3859 38.25 23.5112 38.25 23.6387V32.25C38.25 32.6642 37.9142 33 37.5 33H10.5C10.0858 33 9.75 32.6642 9.75 32.25V28.5H28.5C28.9142 28.5 29.25 28.1642 29.25 27.75Z" fill="#154E84"/>
<path id="Shape_9" d="M15 37.5C17.0711 37.5 18.75 35.8211 18.75 33.75C18.75 31.6789 17.0711 30 15 30C12.9289 30 11.25 31.6789 11.25 33.75C11.25 35.8211 12.9289 37.5 15 37.5Z" fill="#154E84"/>
<path id="Shape_10" d="M15 36C13.7574 36 12.75 34.9926 12.75 33.75C12.75 32.5074 13.7574 31.5 15 31.5C16.2426 31.5 17.25 32.5074 17.25 33.75C17.25 34.9926 16.2426 36 15 36Z" fill="#52ABE2"/>
<path id="Shape_11" d="M33 37.5C35.0711 37.5 36.75 35.8211 36.75 33.75C36.75 31.6789 35.0711 30 33 30C30.9289 30 29.25 31.6789 29.25 33.75C29.25 35.8211 30.9289 37.5 33 37.5Z" fill="#154E84"/>
<path id="Shape_12" d="M33 36C31.7574 36 30.75 34.9926 30.75 33.75C30.75 32.5074 31.7574 31.5 33 31.5C34.2426 31.5 35.25 32.5074 35.25 33.75C35.25 34.9926 34.2426 36 33 36Z" fill="#52ABE2"/>
<circle id="Shape_13" cx="33" cy="33.75" r="0.75" fill="white"/>
<circle id="Shape_14" cx="15" cy="33.75" r="0.75" fill="white"/>
</g>
</svg>
