<svg width="64" height="64" viewBox="0 0 64 64" fill="none" xmlns="http://www.w3.org/2000/svg">
<g id="iconspace_Tshirt B">
<path id="Shape" fill-rule="evenodd" clip-rule="evenodd" d="M20 50C20 51.1046 20.8954 52 22 52H42C43.1046 52 44 51.1046 44 50V28H50C51.1046 28 52 27.1046 52 26V18C52 14.6863 49.3137 12 46 12H38C38 15.3137 35.3137 18 32 18C28.6863 18 26 15.3137 26 12H18C14.6863 12 12 14.6863 12 18V26C12 27.1046 12.8954 28 14 28H20V50Z" fill="white"/>
<rect id="Shape_2" width="8" height="4" transform="matrix(-1 0 0 1 20 24)" fill="#52ABE2"/>
<rect id="Shape_3" width="8" height="4" transform="matrix(-1 0 0 1 52 24)" fill="#52ABE2"/>
<path id="Shape_4" fill-rule="evenodd" clip-rule="evenodd" d="M44 48H20V52H44V48Z" fill="#52ABE2"/>
<path id="Shape_5" fill-rule="evenodd" clip-rule="evenodd" d="M40 23H33V25.5C33 27.433 34.567 29 36.5 29C38.433 29 40 27.433 40 25.5V23Z" fill="#FFC200"/>
<path id="Shape_6" d="M43 24V50C43 50.5523 42.5523 51 42 51H22C21.4477 51 21 50.5523 21 50V24C21 23.4477 20.5523 23 20 23C19.4477 23 19 23.4477 19 24V50C19 51.6569 20.3431 53 22 53H42C43.6569 53 45 51.6569 45 50V24C45 23.4477 44.5523 23 44 23C43.4477 23 43 23.4477 43 24Z" fill="#154E84"/>
<path id="Shape_7" fill-rule="evenodd" clip-rule="evenodd" d="M50 29H45V50C45 51.6569 43.6569 53 42 53H22C20.3431 53 19 51.6569 19 50V29H14C12.3431 29 11 27.6569 11 26V18C11 14.134 14.134 11 18 11H26C26.5523 11 27 11.4477 27 12C27 14.7614 29.2386 17 32 17C34.7614 17 37 14.7614 37 12C37 11.4477 37.4477 11 38 11H46C49.866 11 53 14.134 53 18V26C53 27.6569 51.6569 29 50 29ZM38.9291 13C38.4439 16.3923 35.5265 19 32 19C28.4735 19 25.5561 16.3923 25.0709 13H18C15.2386 13 13 15.2386 13 18V26C13 26.5523 13.4477 27 14 27H20C20.5523 27 21 27.4477 21 28V50C21 50.5523 21.4477 51 22 51H42C42.5523 51 43 50.5523 43 50V28C43 27.4477 43.4477 27 44 27H50C50.5523 27 51 26.5523 51 26V18C51 15.2386 48.7614 13 46 13H38.9291Z" fill="#154E84"/>
</g>
</svg>
