<svg width="64" height="64" viewBox="0 0 64 64" fill="none" xmlns="http://www.w3.org/2000/svg">
<g id="iconspace_Notebook">
<path id="Shape" d="M17 13H47C48.6569 13 50 14.3431 50 16V37C50 37.5523 49.5523 38 49 38H15C14.4477 38 14 37.5523 14 37V16C14 14.3431 15.3431 13 17 13Z" fill="#154E84"/>
<path id="Shape_2" d="M48 36V16C48 15.4477 47.5523 15 47 15H17C16.4477 15 16 15.4477 16 16V36H48Z" fill="#52ABE2"/>
<path id="Shape_3" fill-rule="evenodd" clip-rule="evenodd" d="M18 18C18 17.4477 18.4477 17 19 17H45C45.5523 17 46 17.4477 46 18V33C46 33.5523 45.5523 34 45 34H19C18.4477 34 18 33.5523 18 33V18Z" fill="white"/>
<path id="Shape_4" d="M14.2041 36H49.7951L52.4086 47.3254C52.7812 48.9398 51.7745 50.5506 50.16 50.9232C49.9388 50.9742 49.7125 51 49.4855 51H14.5137C12.8568 51 11.5137 49.6569 11.5137 48C11.5137 47.773 11.5394 47.5466 11.5905 47.3254L14.2041 36Z" fill="#154E84"/>
<path id="Shape_5" d="M13.5393 47.7751C13.5223 47.8489 13.5137 47.9243 13.5137 48C13.5137 48.5523 13.9614 49 14.5137 49H49.4855C49.5611 49 49.6366 48.9914 49.7103 48.9744C50.2485 48.8502 50.584 48.3133 50.4599 47.7751L48.2041 38H15.7951L13.5393 47.7751Z" fill="white"/>
<path id="Shape_6" d="M25.6256 42.7772C25.7295 42.3225 26.134 42 26.6004 42H37.4004C37.8669 42 38.2714 42.3225 38.3753 42.7772L39.9753 49.7772C40.1184 50.4033 39.6427 51 39.0004 51H25.0004C24.3582 51 23.8825 50.4033 24.0256 49.7772L25.6256 42.7772Z" fill="#154E84"/>
<path id="Shape_7" d="M26.2539 49H37.7452L36.6023 44H27.3968L26.2539 49Z" fill="#FFC200"/>
</g>
</svg>
