<svg width="79" height="24" viewBox="0 0 79 24" fill="none" xmlns="http://www.w3.org/2000/svg">
<g clip-path="url(#clip0_0_44947)">
<path fill-rule="evenodd" clip-rule="evenodd" d="M18.959 0.830357V18.3884C18.959 18.6205 19.0368 18.8147 19.1924 18.971C19.348 19.1272 19.5414 19.2054 19.7726 19.2054H22.76C22.9912 19.2054 23.1846 19.1272 23.3401 18.971C23.4957 18.8147 23.5735 18.6205 23.5735 18.3884V10.3337C24.845 9.05695 26.0364 7.91518 27.1478 7.91518C28.846 7.91518 29.6951 8.56695 29.6951 10.7009V18.3884C29.6951 18.6205 29.7729 18.8147 29.9285 18.971C30.0841 19.1272 30.2775 19.2054 30.5087 19.2054H33.4827C33.7228 19.2054 33.9206 19.1272 34.0762 18.971C34.2318 18.8147 34.3096 18.6205 34.3096 18.3884V10.7009C34.3096 8.52231 33.7673 6.90402 32.6825 5.84598C31.5978 4.78794 30.1908 4.25893 28.4615 4.25893C26.7321 4.25893 25.1028 4.90624 23.5735 6.20089V0.830357C23.5735 0.589284 23.4957 0.390626 23.3401 0.234375C23.1846 0.0781242 22.9912 0 22.76 0H19.7726C19.5414 0 19.348 0.0781242 19.1924 0.234375C19.0368 0.390626 18.959 0.589284 18.959 0.830357ZM2.98159 17.5179C1.61235 16.2143 0.927734 14.3371 0.927734 11.8862C0.927734 9.43526 1.61679 7.55135 2.99493 6.23438C4.37307 4.9174 6.28465 4.25893 8.72973 4.25893C11.1748 4.25893 13.082 4.89955 14.4512 6.1808C15.8204 7.46206 16.5051 9.2991 16.5051 11.692V12.4554C16.5051 12.6964 16.4273 12.8951 16.2717 13.0513C16.1161 13.2076 15.9182 13.2857 15.6782 13.2857H5.63561C5.72452 14.3839 6.03793 15.183 6.57585 15.683C7.11377 16.183 7.97398 16.433 9.15651 16.433C10.339 16.433 11.1481 16.1652 11.5838 15.6295C12.0195 15.0937 12.8542 15.1757 14.1418 15.3563C15.4294 15.5369 15.7198 16.2179 15.6782 16.433C15.2697 18.5424 13.1298 19.4813 8.7164 19.4733C6.26242 19.4733 4.35084 18.8214 2.98159 17.5179ZM5.60893 10.4598H11.8105C11.7216 8.35267 10.6925 7.29911 8.72307 7.29911C6.75366 7.29911 5.71563 8.35267 5.60893 10.4598ZM40.1645 20.5982L41.9116 20.8259C42.9728 20.8259 43.7632 20.1637 44.2829 18.8394C44.2923 18.8155 44.2163 18.8031 44.0754 18.7802C43.5381 18.6928 42.057 18.4518 40.7646 16.8328C39.2833 14.9771 39.0631 14.2607 38.4892 12.393L38.489 12.3923C38.431 12.2034 38.3694 12.0028 38.3024 11.788L36.3152 5.31926C36.2886 5.24783 36.2752 5.16524 36.2752 5.07149C36.2752 4.97774 36.3308 4.8639 36.4419 4.72997C36.5531 4.59604 36.7198 4.52462 36.9421 4.51569L39.5643 4.52679C39.8222 4.52679 40.0689 4.61384 40.3045 4.78795C40.5401 4.96205 40.6935 5.17857 40.7646 5.4375L42.5117 11.1161C42.9474 12.5089 43.3897 13.4732 43.8387 14.0089C44.2877 14.5446 44.819 14.8125 45.4325 14.8125L48.0865 5.4375C48.1576 5.17857 48.2977 4.96205 48.5066 4.78795C48.7155 4.61384 48.9489 4.52679 49.2068 4.52679H52.0208C52.2431 4.52679 52.4076 4.59821 52.5143 4.74107C52.621 4.88393 52.6743 5.00223 52.6743 5.09598C52.6743 5.18973 52.6654 5.26786 52.6477 5.33036L49.1534 17.8393C48.531 20.0536 47.7597 21.6339 46.8395 22.5804C45.9193 23.5268 44.7345 24 43.2853 24L42.7282 23.9971C41.5703 23.9848 40.7313 23.9321 40.2111 23.8393C39.611 23.7321 39.2353 23.6004 39.0842 23.4442C38.933 23.2879 38.8575 23.1071 38.8575 22.9018V21.4286C38.8575 21.1875 38.933 20.9888 39.0842 20.8326C39.2353 20.6763 39.4309 20.5982 39.671 20.5982H40.1645ZM54.1947 18.2411C53.0211 17.4196 52.4343 16.2589 52.4343 14.7589C52.4343 13.2589 53.0233 12.1071 54.2014 11.3036C55.3795 10.5 56.8976 10.0982 58.7559 10.0982H63.1704C63.1704 9.05357 62.9525 8.3259 62.5169 7.91518C62.0812 7.50446 61.3188 7.29911 60.2296 7.29911C59.213 7.29911 58.4792 7.53438 58.028 8.00494L57.9357 8.10938C57.4956 8.64956 56.1101 8.4659 54.8733 8.22764C53.6365 7.98939 53.5564 7.3584 53.6668 7.03003C54.2877 5.18262 56.6553 4.25893 60.7697 4.25893C62.8859 4.25893 64.584 4.73437 65.8644 5.68527C67.1447 6.63617 67.7849 8.10713 67.7849 10.0982V18.3884C67.7849 18.6295 67.7093 18.8259 67.5582 18.9777C67.407 19.1295 67.2114 19.2054 66.9713 19.2054H64.3973C64.1573 19.2054 63.9617 19.1272 63.8105 18.971C63.6594 18.8147 63.5838 18.6205 63.5838 18.3884V17.9732C62.179 18.9821 60.5586 19.4844 58.7226 19.4799C56.8865 19.4754 55.3773 19.0625 54.1947 18.2411ZM59.076 13.1384H63.1704V15.2277C61.8989 16.0313 60.5786 16.433 59.2093 16.433C58.5247 16.433 57.9957 16.2768 57.6223 15.9643C57.2488 15.6518 57.0621 15.2545 57.0621 14.7723C57.0621 14.2902 57.2422 13.8973 57.6023 13.5938C57.9624 13.2902 58.4536 13.1384 59.076 13.1384Z" fill="url(#paint0_linear_0_44947)"/>
<circle cx="74.6415" cy="8.57164" r="3.42857" fill="#1576D8"/>
<rect x="20" y="-22" width="1" height="23" fill="#D9D9D9"/>
</g>
<defs>
<linearGradient id="paint0_linear_0_44947" x1="0.927734" y1="0" x2="0.927734" y2="24" gradientUnits="userSpaceOnUse">
<stop stop-color="#254A72"/>
<stop offset="1" stop-color="#10243E"/>
</linearGradient>
<clipPath id="clip0_0_44947">
<rect width="77.1429" height="24" fill="white" transform="translate(0.927734)"/>
</clipPath>
</defs>
</svg>
