<svg width="64" height="64" viewBox="0 0 64 64" fill="none" xmlns="http://www.w3.org/2000/svg">
<g id="iconspace_Not C">
<ellipse id="Shape" cx="16" cy="45" rx="6" ry="5" fill="white"/>
<ellipse id="Shape_2" cx="40" cy="41" rx="6" ry="5" fill="white"/>
<ellipse id="Shape_3" cx="16" cy="45" rx="6" ry="5" fill="#52ABE2"/>
<ellipse id="Shape_4" cx="40" cy="41" rx="6" ry="5" fill="#FFC200"/>
<path id="Path" fill-rule="evenodd" clip-rule="evenodd" d="M17.5 40.1575C14.9122 40.7126 13 42.6702 13 45C13 47.3298 14.9122 49.2874 17.5 49.8425C17.0206 49.9453 16.5179 50 16 50C12.6863 50 10 47.7614 10 45C10 42.2386 12.6863 40 16 40C16.5179 40 17.0206 40.0547 17.5 40.1575Z" fill="white"/>
<path id="Shape_5" fill-rule="evenodd" clip-rule="evenodd" d="M41.5 36.1575C38.9122 36.7126 37 38.6702 37 41C37 43.3298 38.9122 45.2874 41.5 45.8425C41.0206 45.9453 40.5179 46 40 46C36.6863 46 34 43.7614 34 41C34 38.2386 36.6863 36 40 36C40.5179 36 41.0206 36.0547 41.5 36.1575Z" fill="white"/>
<path id="Shape_6" fill-rule="evenodd" clip-rule="evenodd" d="M23 45C23 48.3581 19.8298 51 16 51C12.1702 51 9 48.3581 9 45C9 41.6419 12.1702 39 16 39C19.8298 39 23 41.6419 23 45ZM11 45C11 47.1647 13.2024 49 16 49C18.7976 49 21 47.1647 21 45C21 42.8353 18.7976 41 16 41C13.2024 41 11 42.8353 11 45Z" fill="#154E84"/>
<path id="Shape_7" fill-rule="evenodd" clip-rule="evenodd" d="M47 41C47 44.3581 43.8298 47 40 47C36.1702 47 33 44.3581 33 41C33 37.6419 36.1702 35 40 35C43.8298 35 47 37.6419 47 41ZM35 41C35 43.1647 37.2024 45 40 45C42.7976 45 45 43.1647 45 41C45 38.8353 42.7976 37 40 37C37.2024 37 35 38.8353 35 41Z" fill="#154E84"/>
<path id="Shape_8" d="M23 18.7655L45 12.3846V40.7151C45 41.2674 45.4477 41.7151 46 41.7151C46.5523 41.7151 47 41.2674 47 40.7151V11.0534C47 10.3873 46.3611 9.90741 45.7214 10.0929L21.7214 17.0539C21.2941 17.1778 21 17.5693 21 18.0143V44.7151C21 45.2674 21.4477 45.7151 22 45.7151C22.5523 45.7151 23 45.2674 23 44.7151V18.7655Z" fill="#154E84"/>
<path id="Shape_9" fill-rule="evenodd" clip-rule="evenodd" d="M21 24.0002C21 24.6669 21.64 25.1469 22.28 24.9602L46.28 17.9602C46.7067 17.8358 47 17.4447 47 17.0002V11.0534C47 10.3873 46.3611 9.90741 45.7214 10.0929L21.7214 17.0539C21.2941 17.1778 21 17.5693 21 18.0143V24.0002ZM45 12.3846V16.2502L23 22.6669V18.7655L45 12.3846Z" fill="#154E84"/>
</g>
</svg>
