<svg width="48" height="48" viewBox="0 0 48 48" fill="none" xmlns="http://www.w3.org/2000/svg">
<g id="iconspace_Secure">
<circle id="Shape" cx="24" cy="24" r="24" fill="#E6F0FC"/>
<path id="Shape_2" fill-rule="evenodd" clip-rule="evenodd" d="M24.2547 8.29458C24.0901 8.23514 23.9099 8.23514 23.7453 8.29458L10.2453 13.1696C9.94806 13.2769 9.75 13.559 9.75 13.875V24C9.75 31.9509 14.4984 37.2269 23.8056 39.7244C23.9346 39.759 24.0705 39.7585 24.1993 39.723C33.5034 37.1582 38.25 31.8843 38.25 24V13.875C38.25 13.559 38.0519 13.2769 37.7547 13.1696L24.2547 8.29458ZM11.25 14.4016L24 9.7974L36.75 14.4016V24C36.75 31.0997 32.5607 35.8082 23.9974 38.2221C15.4373 35.8712 11.25 31.1643 11.25 24V14.4016Z" fill="#154E84"/>
<path id="Shape_3" fill-rule="evenodd" clip-rule="evenodd" d="M24 9L37.5 13.875V24C37.5 35.2786 24 39 24 39C24 39 10.5 35.3774 10.5 24C10.5 24 10.5 13.875 10.5 13.875L24 9Z" fill="#52ABE2"/>
<path id="Shape_4" fill-rule="evenodd" clip-rule="evenodd" d="M24 9V39C24 39 10.5 35.3774 10.5 24C10.5 24 10.5 13.875 10.5 13.875L24 9Z" fill="#FFC200"/>
<path id="Shape_5" d="M23.7389 11.2969C23.9073 11.2344 24.0927 11.2344 24.2611 11.2969L34.7611 15.1969C35.055 15.3061 35.25 15.5865 35.25 15.9V24C35.25 30.3746 31.5085 34.6506 24.2046 36.7216C24.0725 36.759 23.9328 36.7595 23.8005 36.723C16.4934 34.7062 12.75 30.4281 12.75 24L12.75 15.9C12.75 15.5865 12.945 15.3061 13.2389 15.1969L23.7389 11.2969Z" fill="#154E84"/>
<path id="Shape_6" d="M24 12.7998L14.25 16.4212L14.25 23.9997C14.25 29.6498 17.441 33.3539 23.9973 35.2201C30.557 33.3041 33.75 29.5985 33.75 23.9997V16.4212L24 12.7998Z" fill="white"/>
<path id="Shape_7" d="M20.7803 24.2197C20.4874 23.9268 20.0126 23.9268 19.7197 24.2197C19.4268 24.5126 19.4268 24.9875 19.7197 25.2804L22.7197 28.2804C23.0387 28.5994 23.5651 28.5666 23.842 28.2105L29.092 21.4605C29.3463 21.1335 29.2874 20.6623 28.9605 20.408C28.6335 20.1537 28.1623 20.2126 27.908 20.5396L23.1796 26.619L20.7803 24.2197Z" fill="#154E84"/>
<path id="Shape_8" fill-rule="evenodd" clip-rule="evenodd" d="M24.2547 8.29458C24.0901 8.23514 23.9099 8.23514 23.7453 8.29458L10.2453 13.1696C9.94806 13.2769 9.75 13.559 9.75 13.875V24C9.75 31.9509 14.4984 37.2269 23.8056 39.7244C23.9346 39.759 24.0705 39.7585 24.1993 39.723C33.5034 37.1582 38.25 31.8843 38.25 24V13.875C38.25 13.559 38.0519 13.2769 37.7547 13.1696L24.2547 8.29458ZM11.25 14.4016L24 9.7974L36.75 14.4016V24C36.75 31.0997 32.5607 35.8082 23.9974 38.2221C15.4373 35.8712 11.25 31.1643 11.25 24V14.4016Z" fill="#154E84"/>
</g>
</svg>
