<svg width="48" height="48" viewBox="0 0 48 48" fill="none" xmlns="http://www.w3.org/2000/svg">
<g id="iconspace_Women Wallet">
<circle id="Shape" cx="24" cy="24" r="24" fill="#E6F0FC"/>
<path id="Shape_2" fill-rule="evenodd" clip-rule="evenodd" d="M13.9301 18.75H34.0677L37.0275 28.0098C38.5409 32.7444 35.9296 37.8093 31.195 39.3227C30.3092 39.6059 29.3848 39.75 28.4548 39.75H19.543C14.5724 39.75 10.543 35.7206 10.543 30.75C10.543 29.82 10.6871 28.8956 10.9703 28.0098L13.9301 18.75Z" fill="#FFC200"/>
<path id="Shape_3" fill-rule="evenodd" clip-rule="evenodd" d="M16.1801 18.75H34.0677L37.0275 28.0098C38.5409 32.7444 35.9296 37.8093 31.195 39.3227C30.3092 39.6059 29.3848 39.75 28.4548 39.75H21.793C16.8224 39.75 12.793 35.7206 12.793 30.75C12.793 29.82 12.9371 28.8956 13.2203 28.0098L16.1801 18.75Z" fill="white"/>
<path id="Shape_4" d="M14.25 13.5H33.75C35.4069 13.5 36.75 14.8431 36.75 16.5C36.75 18.1569 35.4069 19.5 33.75 19.5H14.25C12.5931 19.5 11.25 18.1569 11.25 16.5C11.25 14.8431 12.5931 13.5 14.25 13.5Z" fill="#154E84"/>
<path id="Shape_5" d="M14.25 15C13.4216 15 12.75 15.6716 12.75 16.5C12.75 17.3284 13.4216 18 14.25 18H33.75C34.5784 18 35.25 17.3284 35.25 16.5C35.25 15.6716 34.5784 15 33.75 15H14.25Z" fill="#52ABE2"/>
<path id="Shape_6" d="M30.75 13.876C30.75 11.8049 29.0711 10.126 27 10.126C24.9289 10.126 23.25 11.8049 23.25 13.876L23.2505 14.2511C23.2511 14.6649 23.5868 15.0001 24.0005 15.0001H30C30.4142 15.0001 30.75 14.6643 30.75 14.2501V13.876Z" fill="#154E84"/>
<path id="Shape_7" d="M24.7812 13.5001C24.9598 12.4368 25.8853 11.626 27.0001 11.626C28.1147 11.626 29.0399 12.4364 29.2189 13.5001H24.7812Z" fill="#FFC200"/>
<path id="Shape_8" d="M21 10.126C18.9289 10.126 17.25 11.8049 17.25 13.876V14.2501C17.25 14.6643 17.5858 15.0001 18 15.0001H24.0005C24.4152 15.0001 24.7511 14.6636 24.7505 14.249L24.75 13.8754C24.7497 11.8046 23.0709 10.126 21 10.126Z" fill="#154E84"/>
<path id="Shape_9" d="M23.2187 13.5001H18.7812C18.9602 12.4364 19.8854 11.626 21 11.626C22.1145 11.626 23.0398 12.4364 23.2187 13.5001Z" fill="#FFC200"/>
<path id="Shape_10" fill-rule="evenodd" clip-rule="evenodd" d="M13.9301 18C13.6039 18 13.315 18.2109 13.2157 18.5216L10.2559 27.7814C9.94912 28.7411 9.79297 29.7425 9.79297 30.75C9.79297 36.1348 14.1582 40.5 19.543 40.5H28.4548C29.4623 40.5 30.4637 40.3438 31.4234 40.0371C36.5525 38.3976 39.3814 32.9106 37.7419 27.7814L34.7821 18.5216C34.6827 18.2109 34.3939 18 34.0677 18H13.9301ZM11.6847 28.2381L14.4777 19.5H33.52L36.3131 28.2381C37.7004 32.5782 35.3067 37.221 30.9667 38.6083C30.1546 38.8679 29.3073 39 28.4548 39H19.543C14.9866 39 11.293 35.3063 11.293 30.75C11.293 29.8975 11.4251 29.0502 11.6847 28.2381Z" fill="#154E84"/>
</g>
</svg>
